<svg width="335" height="322" viewBox="0 0 335 322" fill="none" xmlns="http://www.w3.org/2000/svg">
<g id="kipas">
<g id="kabel">
<line id="Line 1" x1="82.9985" y1="274.5" x2="249.002" y2="274.5" stroke="black"/>
<g id="Group 4">
<path id="Ellipse 2" d="M71.5 263C75.8761 263 80.0729 264.159 83.1673 266.222C86.2616 268.285 88 271.083 88 274C88 276.917 86.2616 279.715 83.1673 281.778C80.0729 283.841 75.8761 285 71.5 285L71.5 274V263Z" fill="#383838"/>
<g id="Group 2">
<rect id="Rectangle 1" x="65" y="268" width="12" height="1" rx="0.5" fill="#383838"/>
<rect id="Rectangle 2" x="65" y="278" width="12" height="1" rx="0.5" fill="#383838"/>
</g>
</g>
</g>
<path id="gagang" d="M200.627 102.686L231.082 102.686L255.908 285.495L180.5 285.495L200.627 102.686Z" fill="#FFD02C"/>
<g id="baling">
<path d="M155.43 22.0825C130.881 47.3196 169.291 78.8661 191.565 91.4846C227.7 54.4893 236.016 96.9336 234.869 81.7339C233.722 66.5343 306.279 34.7011 284.77 15.7732C263.261 -3.15464 186.116 -9.46393 155.43 22.0825Z" fill="#4BE9F3"/>
<path d="M319.79 103.285C315.304 68.365 266.709 78.8115 242.973 88.3998C249.457 139.706 211.053 119.812 223.667 128.37C236.28 136.928 216.064 213.538 244.264 208.474C272.464 203.409 325.398 146.936 319.79 103.285Z" fill="#4BE9F3"/>
<path d="M180.457 197.588C215.262 202.899 218.611 153.307 215.935 127.848C164.828 119.942 194.535 88.507 182.832 98.2741C171.13 108.041 103.056 67.4964 100.154 96.0003C97.2509 124.504 136.951 190.95 180.457 197.588Z" fill="#4BE9F3"/>
<path d="M232.408 102.956C232.408 112.301 224.832 119.876 215.488 119.876C206.143 119.876 198.567 112.301 198.567 102.956C198.567 93.6112 206.143 86.0357 215.488 86.0357C224.832 86.0357 232.408 93.6112 232.408 102.956Z" fill="#4BE9F3"/>
</g>
<rect id="kontak" y="259" width="30" height="30" fill="#FFD02C"/>
</g>
</svg>
